<svg width="136" height="24" class="logo-wide" viewBox="0 0 136 24" fill="none" xmlns="http://www.w3.org/2000/svg"><path d="M22.005 13.1797H13.4207H5.38035C2.41814 13.1797 0 15.5978 0 18.56C0 21.5223 2.41814 23.9404 5.38035 23.9404H13.4207H22.005C24.9673 23.9404 27.3854 21.5223 27.3854 18.56C27.4458 15.6583 25.0277 13.1797 22.005 13.1797ZM6.52897 22.3686C6.16625 22.4895 5.80353 22.55 5.38035 22.55C3.20403 22.55 1.45088 20.7968 1.45088 18.6205C1.45088 16.4442 3.20403 14.691 5.38035 14.691C5.80353 14.691 6.16625 14.7515 6.52897 14.8724C4.95718 15.356 3.74811 16.8673 3.74811 18.6205C3.80856 20.3736 4.95718 21.885 6.52897 22.3686Z" fill="black"></path><path d="M22.005 0H13.4207H5.38035C2.41814 0 0 2.41814 0 5.38035C0 8.34257 2.41814 10.7607 5.38035 10.7607H13.4207H22.005C24.9673 10.7607 27.3854 8.34257 27.3854 5.38035C27.4458 2.41814 25.0277 0 22.005 0ZM22.005 9.30982C19.8287 9.30982 18.0756 7.55667 18.0756 5.38035C18.0756 3.20403 19.8287 1.45088 22.005 1.45088C24.1814 1.45088 25.9345 3.20403 25.9345 5.38035C25.9345 7.55667 24.1814 9.30982 22.005 9.30982Z" fill="black"></path><path d="M38.3878 16.687C37.6019 15.7198 37.2392 14.4502 37.1787 12.9389V12.2739V11.6089C37.2392 10.0976 37.6623 8.88853 38.4482 7.86082C39.2341 6.89357 40.3827 6.34949 41.8941 6.34949C43.4054 6.34949 44.554 6.89357 45.4004 7.98173V2.9641C45.4004 2.84319 45.4608 2.72228 45.5213 2.60138C45.6422 2.48047 45.7631 2.48047 45.884 2.48047H46.8513C46.9722 2.48047 47.0931 2.54092 47.214 2.60138C47.3349 2.72228 47.3349 2.84319 47.3349 2.9641V17.4125C47.3349 17.5334 47.2744 17.6543 47.214 17.7752C47.0931 17.8961 46.9722 17.8961 46.8513 17.8961H45.9445C45.8235 17.8961 45.7026 17.8356 45.5817 17.7752C45.5213 17.6543 45.4608 17.5334 45.4608 17.4125V16.5057C44.6145 17.5938 43.4659 18.1379 41.8941 18.1379C40.3223 18.1379 39.1737 17.6543 38.3878 16.687ZM44.4936 15.4175C44.9772 14.7525 45.2795 13.9666 45.3399 12.9994C45.3399 12.818 45.3399 12.5762 45.3399 12.153C45.3399 11.7298 45.3399 11.488 45.3399 11.3067C45.3399 10.3999 45.0377 9.67442 44.4936 9.00944C43.9495 8.34445 43.2241 8.04218 42.1963 8.04218C41.1686 8.04218 40.3827 8.34445 39.8991 9.00944C39.4155 9.67442 39.1737 10.5208 39.1132 11.5485V12.153C39.1132 14.9339 40.1409 16.3243 42.1963 16.3243C43.2241 16.4452 44.0099 16.1429 44.4936 15.4175Z" fill="#231F20"></path><path d="M51.8084 17.711C51.2039 17.4088 50.7203 17.046 50.3576 16.502C49.9948 15.9579 49.8135 15.4743 49.8135 14.8093C49.8135 13.842 50.1762 13.0561 50.9621 12.4516C51.748 11.8471 52.8361 11.4239 54.1661 11.2425L57.4306 10.7589V10.1544C57.4306 8.64303 56.5843 7.91759 54.8311 7.91759C54.1661 7.91759 53.622 8.03849 53.1989 8.34076C52.7757 8.58257 52.4734 8.94529 52.2921 9.30801C52.2316 9.42892 52.1712 9.54983 52.1107 9.61028C52.1107 9.67073 51.9898 9.67073 51.9293 9.67073H51.083C50.9621 9.67073 50.8412 9.61028 50.7203 9.54983C50.5994 9.42892 50.5994 9.36847 50.5994 9.18711C50.5994 8.82439 50.7807 8.46167 51.083 8.03849C51.3853 7.61532 51.8689 7.19214 52.5339 6.88988C53.1989 6.58761 53.9848 6.40625 54.952 6.40625C56.5843 6.40625 57.7329 6.76897 58.4583 7.55486C59.1837 8.28031 59.486 9.24756 59.486 10.3962V17.4692C59.486 17.5901 59.4256 17.711 59.3651 17.8319C59.2442 17.9529 59.1233 17.9529 59.0024 17.9529H58.0351C57.9142 17.9529 57.7933 17.8924 57.6724 17.8319C57.612 17.711 57.5515 17.5901 57.5515 17.4692V16.502C57.2492 16.9856 56.7656 17.4088 56.1611 17.711C55.5565 18.0133 54.7707 18.1947 53.8034 18.1947C53.0175 18.1342 52.413 18.0133 51.8084 17.711ZM56.5238 15.5952C57.1283 14.9906 57.4306 14.0838 57.4306 12.8748V12.2702L54.8916 12.633C53.8639 12.7539 53.078 12.9957 52.5339 13.3584C51.9898 13.7211 51.748 14.1443 51.748 14.6884C51.748 15.2929 51.9898 15.7161 52.4734 16.0788C52.9571 16.3811 53.5616 16.5624 54.2266 16.5624C55.1334 16.5624 55.9193 16.2602 56.5238 15.5952Z" fill="#231F20"></path><path d="M64.0202 21.9452C63.9597 21.8847 63.8992 21.7638 63.8992 21.6429C63.8992 21.5825 63.9597 21.4616 64.0202 21.2802L65.7128 17.2903L61.5416 7.49683C61.4811 7.31547 61.4207 7.19456 61.4207 7.13411C61.4207 7.0132 61.4811 6.8923 61.602 6.83184C61.6625 6.77139 61.7834 6.71094 61.9043 6.71094H62.932C63.1738 6.71094 63.3552 6.83184 63.4761 7.07366L66.801 15.0535L70.2469 7.07366C70.3678 6.83184 70.5491 6.71094 70.7909 6.71094H71.7582C71.8791 6.71094 72 6.77139 72.0605 6.83184C72.1209 6.8923 72.1814 7.0132 72.1814 7.13411C72.1814 7.25502 72.1209 7.37592 72.0605 7.49683L65.8942 21.7638C65.8338 21.8847 65.7733 21.9452 65.6524 22.0056C65.5315 22.0661 65.471 22.0661 65.3501 22.0661H64.3829C64.2015 22.0661 64.0806 22.0056 64.0202 21.9452Z" fill="#231F20"></path><path d="M75.2645 17.6506C74.5995 17.3483 74.0554 16.9251 73.7532 16.502C73.3904 16.0788 73.2695 15.7161 73.2695 15.4743C73.2695 15.3534 73.33 15.2324 73.4509 15.1115C73.5718 14.9906 73.6323 14.9906 73.7532 14.9906H74.66C74.7204 14.9906 74.8413 14.9906 74.8413 15.0511C74.9018 15.0511 74.9622 15.172 75.0227 15.2324C75.3854 15.6556 75.7481 15.9579 76.1713 16.1997C76.5945 16.4415 77.1385 16.5624 77.864 16.5624C78.6499 16.5624 79.2544 16.4415 79.738 16.1392C80.2217 15.837 80.4635 15.4138 80.4635 14.8697C80.4635 14.507 80.3426 14.2047 80.1612 14.0234C79.9799 13.7816 79.6171 13.6002 79.1335 13.4188C78.6499 13.2375 77.9849 13.0561 77.0176 12.8748C75.7481 12.5725 74.8413 12.2098 74.3577 11.6657C73.8136 11.1216 73.5718 10.4566 73.5718 9.67073C73.5718 9.12665 73.7532 8.64303 74.0554 8.09895C74.3577 7.55486 74.8413 7.19214 75.5063 6.88988C76.1108 6.58761 76.8967 6.40625 77.7431 6.40625C78.6499 6.40625 79.4358 6.58761 80.1008 6.88988C80.7657 7.19214 81.2494 7.55486 81.5516 7.97804C81.8539 8.40121 82.0353 8.70348 82.0353 9.00575C82.0353 9.12665 81.9748 9.24756 81.9144 9.30801C81.7935 9.36847 81.733 9.42892 81.5516 9.42892H80.7053C80.5239 9.42892 80.3426 9.36847 80.2821 9.18711C80.0403 8.88484 79.7985 8.70348 79.6776 8.52212C79.4962 8.34076 79.2544 8.21985 78.9521 8.1594C78.6499 8.03849 78.2267 7.97804 77.7431 7.97804C77.0176 7.97804 76.4736 8.09895 76.1108 8.40121C75.7481 8.70348 75.5668 9.0662 75.5668 9.61028C75.5668 9.91255 75.6272 10.1544 75.8086 10.3962C75.9899 10.5775 76.2922 10.8193 76.7154 11.0007C77.1385 11.1821 77.8035 11.3634 78.7103 11.5448C80.1008 11.8471 81.068 12.2702 81.6121 12.8143C82.1562 13.3584 82.4584 14.0234 82.4584 14.8697C82.4584 15.4743 82.2771 16.0788 81.9144 16.5624C81.5516 17.046 81.0076 17.4692 80.3426 17.7715C79.6776 18.0738 78.8312 18.1947 77.8035 18.1947C76.8363 18.1342 75.9899 18.0133 75.2645 17.6506Z" fill="#231F20"></path><path d="M87.234 17.7737C87.1131 17.7133 87.0527 17.5319 86.9922 17.3506L83.9091 7.25483L83.8486 7.01302C83.8486 6.89211 83.9091 6.7712 83.9695 6.71075C84.03 6.6503 84.1509 6.58984 84.2718 6.58984H85.1786C85.2995 6.58984 85.4204 6.6503 85.5413 6.71075C85.6622 6.7712 85.6622 6.89211 85.7227 6.95256L88.2013 15.2951L90.8008 7.07347C90.8008 6.95256 90.9217 6.83166 90.9821 6.7712C91.103 6.6503 91.2239 6.6503 91.4053 6.6503H92.1307C92.3121 6.6503 92.433 6.71075 92.5539 6.7712C92.6748 6.89211 92.7353 6.95256 92.7353 7.07347L95.3348 15.2951L97.8134 6.95256C97.8134 6.89211 97.8738 6.83166 97.9947 6.71075C98.1156 6.6503 98.2365 6.58984 98.3575 6.58984H99.2643C99.3852 6.58984 99.5061 6.6503 99.5665 6.71075C99.627 6.7712 99.6874 6.89211 99.6874 7.01302L99.627 7.25483L96.5438 17.3506C96.4834 17.5319 96.4229 17.6528 96.302 17.7737C96.1811 17.8342 96.0602 17.8946 95.8184 17.8946H95.0325C94.6698 17.8946 94.428 17.7133 94.3071 17.3506L91.768 9.49161L89.229 17.3506C89.1081 17.7133 88.8663 17.8946 88.5035 17.8946H87.7177C87.4758 17.9551 87.3549 17.8946 87.234 17.7737Z" fill="#231F20"></path><path d="M102.952 17.711C102.347 17.4088 101.864 17.046 101.501 16.502C101.138 15.9579 100.957 15.4743 100.957 14.8093C100.957 13.842 101.32 13.0561 102.106 12.4516C102.892 11.8471 103.98 11.4239 105.31 11.2425L108.574 10.7589V10.1544C108.574 8.64303 107.728 7.91759 105.975 7.91759C105.31 7.91759 104.766 8.03849 104.342 8.34076C103.919 8.58257 103.617 8.94529 103.436 9.30801C103.375 9.42892 103.315 9.54983 103.254 9.61028C103.194 9.67073 103.073 9.67073 102.952 9.67073H102.106C101.985 9.67073 101.864 9.61028 101.743 9.54983C101.622 9.42892 101.622 9.36847 101.622 9.18711C101.622 8.82439 101.803 8.46167 102.106 8.03849C102.408 7.61532 102.892 7.19214 103.557 6.88988C104.222 6.58761 105.007 6.40625 105.975 6.40625C107.607 6.40625 108.756 6.76897 109.481 7.55486C110.206 8.28031 110.509 9.24756 110.509 10.3962V17.4692C110.509 17.5901 110.448 17.711 110.388 17.8319C110.267 17.9529 110.146 17.9529 110.025 17.9529H109.058C108.937 17.9529 108.816 17.8924 108.695 17.8319C108.635 17.711 108.574 17.5901 108.574 17.4692V16.502C108.272 16.9856 107.788 17.4088 107.184 17.711C106.579 18.0133 105.793 18.1947 104.826 18.1947C104.222 18.1342 103.557 18.0133 102.952 17.711ZM107.728 15.5952C108.332 14.9906 108.635 14.0838 108.635 12.8748V12.2702L106.096 12.633C105.068 12.7539 104.282 12.9957 103.738 13.3584C103.194 13.7211 102.952 14.1443 102.952 14.6884C102.952 15.2929 103.194 15.7161 103.677 16.0788C104.161 16.3811 104.766 16.5624 105.431 16.5624C106.337 16.5624 107.063 16.2602 107.728 15.5952Z" fill="#231F20"></path><path d="M113.894 21.9428C113.773 21.8823 113.773 21.7614 113.773 21.5801V7.13169C113.773 6.95033 113.834 6.82942 113.894 6.76897C114.015 6.70852 114.136 6.64806 114.257 6.64806H115.164C115.345 6.64806 115.466 6.70852 115.527 6.76897C115.587 6.82942 115.647 6.95033 115.647 7.13169V8.09894C116.494 7.01078 117.703 6.40625 119.214 6.40625C120.726 6.40625 121.874 6.88988 122.66 7.85713C123.446 8.82439 123.809 10.0335 123.869 11.5448C123.869 11.7261 123.869 11.968 123.869 12.2702C123.869 12.6329 123.869 12.8748 123.869 12.9957C123.809 14.4466 123.446 15.7161 122.66 16.6833C121.874 17.6506 120.786 18.1342 119.214 18.1342C117.642 18.1342 116.494 17.5901 115.708 16.502V21.5801C115.708 21.701 115.647 21.8219 115.587 21.9428C115.466 22.0637 115.345 22.0637 115.224 22.0637H114.257C114.136 22.0637 114.015 22.0032 113.894 21.9428ZM121.149 15.4743C121.632 14.8093 121.874 13.9629 121.935 12.9352C121.935 12.8143 121.935 12.5725 121.935 12.3307C121.935 9.54983 120.907 8.1594 118.852 8.1594C117.824 8.1594 117.098 8.52212 116.554 9.18711C116.01 9.85209 115.768 10.638 115.708 11.5448C115.708 11.7261 115.708 11.968 115.708 12.3911C115.708 12.8143 115.708 13.0561 115.708 13.2375C115.708 14.1443 116.01 14.8697 116.554 15.5347C117.098 16.1997 117.824 16.502 118.852 16.502C119.94 16.4415 120.665 16.1392 121.149 15.4743Z" fill="#231F20"></path><path d="M128.04 17.6506C127.375 17.3483 126.831 16.9251 126.529 16.502C126.166 16.0788 126.045 15.7161 126.045 15.4743C126.045 15.3534 126.106 15.2324 126.227 15.1115C126.348 14.9906 126.408 14.9906 126.529 14.9906H127.436C127.496 14.9906 127.617 14.9906 127.617 15.0511C127.678 15.0511 127.738 15.172 127.799 15.2324C128.161 15.6556 128.524 15.9579 128.947 16.1997C129.37 16.4415 129.914 16.5624 130.64 16.5624C131.426 16.5624 132.03 16.4415 132.514 16.1392C132.998 15.837 133.239 15.4138 133.239 14.8697C133.239 14.507 133.118 14.2047 132.937 14.0234C132.756 13.7816 132.393 13.6002 131.909 13.4188C131.426 13.2375 130.761 13.0561 129.794 12.8748C128.524 12.5725 127.617 12.2098 127.134 11.6657C126.589 11.1216 126.348 10.4566 126.348 9.67073C126.348 9.12665 126.529 8.64302 126.831 8.09894C127.134 7.55486 127.617 7.19214 128.282 6.88988C128.887 6.58761 129.673 6.40625 130.519 6.40625C131.426 6.40625 132.212 6.58761 132.877 6.88988C133.542 7.19214 134.025 7.55486 134.328 7.97804C134.63 8.40121 134.811 8.70348 134.811 9.00575C134.811 9.12665 134.751 9.24756 134.69 9.30801C134.569 9.36847 134.509 9.42892 134.328 9.42892H133.481C133.3 9.42892 133.118 9.36847 133.058 9.18711C132.816 8.88484 132.574 8.70348 132.453 8.52212C132.272 8.34076 132.03 8.21985 131.728 8.1594C131.426 8.03849 131.003 7.97804 130.519 7.97804C129.794 7.97804 129.249 8.09894 128.887 8.40121C128.524 8.70348 128.343 9.0662 128.343 9.61028C128.343 9.91255 128.403 10.1544 128.584 10.3962C128.766 10.5775 129.068 10.8193 129.491 11.0007C129.914 11.1821 130.579 11.3634 131.486 11.5448C132.877 11.8471 133.844 12.2702 134.388 12.8143C134.932 13.3584 135.234 14.0234 135.234 14.8697C135.234 15.4743 135.053 16.0788 134.69 16.5624C134.328 17.046 133.783 17.4692 133.118 17.7715C132.453 18.0738 131.547 18.1342 130.579 18.1342C129.552 18.1342 128.705 18.0133 128.04 17.6506Z" fill="#231F20"></path></svg>